<?xml version="1.0" standalone="no"?>
<!DOCTYPE svg PUBLIC "-//W3C//DTD SVG 20010904//EN" "http://www.w3.org/TR/2001/REC-SVG-20010904/DTD/svg10.dtd">
<svg version="1.0" xmlns="http://www.w3.org/2000/svg" width="306.000000pt" height="306.000000pt" viewBox="0 0 306.000000 306.000000" preserveAspectRatio="xMidYMid meet">
  <metadata>Created by potrace 1.11, written by Peter Selinger 2001-2013</metadata>
  <g transform="translate(0.000000,306.000000) scale(0.100000,-0.100000)" fill="#000000" stroke="none">
    <path d="M1377 2924 c3 -8 -2 -11 -14 -10 -10 2 -21 -2 -25 -8 -6 -8 -8 -8 -8
    1 0 6 -9 9 -20 6 -11 -3 -17 -10 -13 -17 4 -6 -1 -5 -10 3 -15 12 -17 12 -11
    -3 4 -12 2 -15 -9 -10 -8 3 -18 1 -22 -5 -9 -15 -28 -14 -20 2 4 6 -1 3 -9 -7
    -9 -11 -16 -16 -16 -10 0 5 -4 3 -9 -4 -4 -7 -17 -14 -29 -15 -17 -1 -19 -4
    -9 -16 10 -12 9 -13 -1 -7 -7 4 -19 2 -27 -4 -8 -6 -19 -9 -24 -5 -7 3 -8 0
    -5 -9 3 -9 -1 -23 -10 -32 -12 -11 -14 -20 -7 -28 7 -9 7 -16 -1 -24 -9 -9 -9
    -12 1 -12 10 0 11 -3 2 -13 -13 -16 -5 -28 15 -20 8 3 14 -1 14 -11 0 -9 8
    -16 18 -16 14 0 15 -2 2 -10 -13 -8 -12 -10 3 -10 20 0 22 -11 5 -28 -9 -9 -9
    -12 1 -12 11 0 11 -3 1 -15 -9 -11 -9 -15 -1 -15 9 0 9 -5 1 -20 -8 -15 -8
    -20 1 -20 8 0 7 -5 -2 -17 -8 -9 -9 -14 -3 -10 6 3 11 0 11 -8 0 -8 -4 -12 -9
    -9 -4 3 -8 -3 -8 -13 0 -14 -2 -15 -9 -4 -13 20 -60 21 -53 1 4 -12 2 -13 -9
    -2 -16 14 -33 16 -24 2 3 -6 -1 -7 -10 -3 -9 3 -13 9 -8 12 12 9 15 31 4 31
    -5 0 -8 12 -6 27 l3 27 -18 -22 c-15 -18 -19 -19 -24 -6 -4 10 -2 13 6 8 6 -4
    8 -3 5 4 -8 12 -47 4 -47 -10 0 -6 -10 -4 -22 4 -25 15 -58 13 -58 -4 0 -6
    -12 -3 -26 7 -15 9 -24 12 -20 7 11 -17 -18 -20 -37 -4 -16 15 -17 14 -11 -4
    4 -10 4 -16 -1 -12 -4 4 -13 3 -20 -2 -8 -7 -12 -5 -12 5 0 8 5 11 11 8 6 -3
    7 -2 3 2 -13 15 -39 15 -34 0 4 -9 -1 -11 -14 -8 -10 3 -27 -1 -36 -8 -9 -8
    -14 -9 -10 -3 4 7 0 14 -8 18 -8 3 -15 1 -15 -4 0 -5 -7 -6 -17 -3 -10 4 -14
    2 -9 -5 3 -6 1 -14 -5 -18 -8 -4 -7 -9 2 -15 11 -7 11 -9 1 -9 -7 0 -11 -4 -7
    -9 3 -5 0 -13 -6 -17 -8 -4 -9 -3 -5 4 4 7 1 12 -8 12 -9 0 -16 -6 -16 -12 0
    -9 -4 -8 -10 2 -6 9 -13 11 -17 5 -10 -13 -47 -19 -39 -7 8 14 -24 8 -32 -5
    -4 -5 -15 -9 -25 -7 -13 2 -15 -1 -8 -10 7 -8 5 -12 -9 -12 -10 0 -16 4 -14 8
    3 4 -2 5 -10 2 -9 -3 -13 -11 -9 -18 4 -6 -2 -4 -12 4 -10 8 -16 10 -12 4 4
    -7 -3 -14 -18 -18 -13 -3 -36 -17 -51 -31 -15 -14 -34 -24 -43 -23 -10 2 -16
    -4 -15 -14 1 -11 -5 -15 -17 -13 -10 2 -18 -1 -16 -8 1 -7 -6 -11 -15 -11 -10
    1 -16 -2 -13 -6 3 -5 -8 -21 -23 -37 -16 -15 -27 -34 -24 -42 3 -8 0 -11 -7
    -7 -6 4 -11 2 -11 -4 0 -6 -5 -8 -13 -4 -7 5 -6 0 3 -11 12 -15 12 -17 1 -10
    -11 6 -13 4 -8 -9 4 -10 3 -15 -3 -11 -6 3 -10 1 -10 -5 0 -6 -5 -8 -12 -4 -6
    4 -8 3 -4 -4 3 -6 1 -14 -5 -17 -5 -4 -8 -13 -5 -20 2 -7 -2 -16 -10 -19 -8
    -3 -14 -11 -14 -18 0 -9 3 -8 10 2 5 8 10 11 10 5 -1 -5 -7 -19 -15 -29 -10
    -13 -11 -23 -5 -31 7 -8 4 -18 -10 -30 -19 -17 -19 -36 -19 -826 0 -695 2
    -807 15 -802 8 3 14 -1 14 -8 0 -11 3 -11 10 1 9 13 10 13 10 0 0 -13 1 -13
    10 0 9 13 10 13 10 0 0 -13 1 -13 10 0 9 13 10 13 10 0 0 -13 1 -13 10 0 9 13
    10 13 10 0 0 -13 1 -13 10 0 5 8 10 10 10 4 0 -14 32 -13 42 0 4 6 12 5 20 -2
    10 -8 18 -8 25 -1 8 8 13 7 19 -2 12 -19 12 -49 1 -49 -5 0 -4 -7 3 -15 10
    -12 10 -15 0 -15 -9 0 -10 -3 -1 -13 6 -8 8 -17 4 -21 -12 -12 -10 -48 4 -53
    7 -3 10 -9 7 -14 -3 -5 2 -9 11 -9 9 0 13 -4 10 -10 -3 -5 -1 -10 4 -10 6 0
    10 -6 9 -13 -4 -17 240 -24 256 -6 8 9 7 10 -4 5 -8 -4 -6 -1 4 8 10 8 23 13
    27 10 5 -3 6 2 3 11 -5 11 0 18 15 22 11 3 18 9 15 14 -3 5 -11 6 -17 2 -7 -3
    -3 3 7 15 11 12 15 22 10 22 -16 0 -11 35 8 55 12 12 18 14 18 6 0 -11 3 -11
    15 -1 11 9 15 9 15 1 0 -9 5 -9 20 -1 15 8 20 8 20 -2 0 -9 3 -9 10 2 8 12 10
    12 10 1 0 -11 3 -11 15 -1 12 10 15 10 15 -1 0 -12 2 -12 9 0 6 9 11 10 15 2
    5 -8 13 -8 27 -1 14 8 19 7 19 -2 0 -8 3 -9 8 -3 9 13 35 13 44 1 4 -6 13 -4
    22 3 13 11 16 11 16 0 0 -12 2 -12 9 0 6 9 10 10 16 2 5 -9 10 -9 21 0 11 9
    14 9 14 -1 0 -9 4 -9 13 -3 6 6 19 9 28 8 9 -2 16 4 16 11 0 8 -4 14 -8 14 -4
    0 -5 9 -2 21 4 16 8 17 14 7 7 -10 9 -10 9 2 0 13 1 13 10 0 9 -13 10 -13 10
    0 0 13 1 13 10 0 9 -13 10 -13 10 0 0 9 3 11 8 5 4 -5 14 -10 22 -10 8 0 18 5
    23 10 4 6 10 5 16 -4 8 -12 12 -12 24 -2 12 9 16 9 20 -1 4 -10 6 -10 6 -1 1
    9 8 10 25 3 17 -6 26 -5 29 3 3 9 8 9 19 -1 12 -10 18 -10 23 -1 6 8 10 7 16
    -2 6 -10 9 -10 9 -2 0 9 7 10 25 3 16 -6 25 -6 25 0 0 6 5 10 11 10 5 0 8 -4
    5 -8 -7 -12 38 -9 47 3 4 6 11 4 17 -5 9 -13 10 -13 10 0 0 12 2 13 9 1 7 -11
    9 -11 14 0 4 11 6 11 6 1 1 -10 6 -10 21 -2 15 8 20 8 20 -2 0 -9 3 -9 10 2 9
    13 10 13 10 0 0 -13 1 -13 10 0 5 8 10 10 10 4 0 -14 32 -13 43 1 4 6 10 5 16
    -4 8 -12 12 -12 24 -2 12 9 16 9 20 -1 4 -10 6 -10 6 -1 1 9 8 10 25 3 17 -6
    26 -5 29 3 3 9 8 9 19 -1 12 -10 18 -10 23 -1 6 8 10 7 16 -2 6 -10 9 -10 9
    -2 0 9 7 10 25 3 16 -6 25 -6 25 0 0 6 5 10 11 10 5 0 8 -4 5 -8 -7 -12 38 -9
    47 3 4 6 11 4 17 -5 9 -13 10 -13 10 0 0 12 2 13 9 1 7 -11 9 -11 14 0 4 11 6
    11 6 1 1 -10 6 -10 21 -2 13 7 20 7 20 1 0 -6 6 -8 14 -5 20 8 30 -14 16 -31
    -10 -12 -9 -15 4 -15 9 0 16 -4 16 -10 0 -6 9 -6 25 0 17 7 25 6 25 -1 0 -8 5
    -7 15 1 12 10 15 10 15 0 0 -9 3 -10 13 -1 10 8 17 7 25 -1 8 -8 12 -8 12 -1
    0 13 32 12 42 -1 4 -6 13 -4 22 3 13 11 16 11 16 0 0 -12 2 -12 9 0 6 9 10 10
    16 2 5 -9 10 -9 21 0 11 9 14 8 14 -2 0 -11 2 -11 10 1 5 8 10 10 10 4 0 -12
    29 -12 48 0 7 4 12 2 12 -6 0 -8 3 -9 8 -3 13 18 41 14 37 -6 -2 -11 1 -19 6
    -19 6 0 7 -5 3 -12 -9 -15 -13 -68 -5 -65 3 1 8 -2 10 -8 9 -19 26 -33 35 -27
    5 3 6 -2 3 -12 -4 -10 -3 -15 3 -11 6 3 10 2 10 -3 0 -6 51 -10 116 -11 78 -1
    114 1 109 8 -4 7 1 8 11 4 13 -5 16 -3 11 10 -4 12 -1 15 15 12 11 -3 18 -2
    15 2 -4 3 3 19 15 35 17 25 18 32 7 39 -12 8 -12 11 1 19 13 9 13 10 0 10 -9
    0 -11 3 -5 8 12 9 16 42 5 42 -5 0 -8 9 -7 20 1 18 5 22 23 19 4 0 10 5 15 12
    6 10 11 10 22 0 11 -9 17 -9 22 0 6 8 10 7 16 -2 6 -10 9 -10 9 -2 0 9 7 10
    25 3 16 -6 25 -6 25 0 0 6 5 10 11 10 5 0 8 -3 6 -7 -3 -5 6 -8 19 -8 13 0 24
    3 24 8 0 4 6 6 13 5 9 -2 12 172 14 840 2 788 1 842 -15 842 -14 0 -15 2 -3 9
    12 7 12 13 3 24 -7 7 -8 17 -4 22 4 4 -4 2 -18 -5 -20 -10 -23 -10 -13 0 7 8
    9 20 3 35 -5 13 -7 25 -4 28 3 2 -2 7 -11 11 -11 4 -14 2 -9 -6 4 -7 3 -8 -5
    -4 -9 6 -9 11 -1 21 9 11 6 12 -12 8 -18 -4 -20 -3 -8 6 10 7 11 11 3 11 -7 0
    -13 9 -13 20 0 11 -6 20 -13 20 -8 0 -22 10 -33 23 l-19 22 24 -20 25 -20 -20
    26 c-11 15 -25 24 -33 21 -10 -4 -13 -1 -8 11 5 15 3 16 -13 7 -24 -13 -40
    -13 -20 0 11 7 11 10 2 10 -7 0 -11 4 -8 9 3 5 -1 11 -9 14 -10 4 -12 1 -8
    -11 6 -14 5 -15 -9 -2 -9 8 -13 19 -10 24 3 5 -3 6 -13 2 -14 -5 -16 -4 -7 7
    9 10 8 14 -3 14 -8 0 -15 -4 -15 -9 0 -5 -6 -3 -14 4 -10 10 -11 15 -2 21 6 6
    4 6 -8 3 -12 -4 -24 0 -32 11 -13 17 -14 17 -8 0 5 -13 2 -16 -10 -11 -9 3
    -13 10 -10 15 3 5 0 9 -6 9 -6 0 -8 5 -4 12 4 7 3 8 -5 4 -6 -4 -8 -13 -4 -19
    5 -8 2 -8 -9 0 -8 7 -18 10 -21 6 -4 -3 -7 -1 -7 5 0 7 -5 12 -11 12 -5 0 -7
    -4 -4 -10 3 -5 1 -10 -4 -10 -6 0 -11 4 -11 10 0 5 -7 7 -16 3 -11 -4 -22 1
    -31 13 -16 21 -22 22 -34 2 -7 -10 -9 -10 -9 0 0 9 -5 10 -19 2 -20 -10 -24 2
    -8 27 6 9 3 11 -7 7 -19 -7 -21 7 -4 24 14 14 8 15 -26 3 -17 -7 -26 -6 -30 2
    -5 9 -8 9 -12 -1 -5 -10 -10 -10 -25 4 -13 12 -19 13 -19 4 0 -9 -3 -10 -13
    -1 -8 6 -17 8 -21 4 -4 -4 -11 -1 -16 7 -8 12 -10 11 -10 -4 0 -20 0 -20 -15
    0 -15 19 -15 19 -9 -1 6 -16 5 -18 -7 -7 -7 6 -17 12 -22 12 -4 0 -5 -6 -1
    -12 4 -7 -3 -4 -15 6 -22 20 -22 20 -15 0 4 -10 4 -16 -1 -12 -4 4 -13 3 -20
    -2 -8 -7 -12 -5 -12 5 0 8 5 11 11 8 6 -3 7 -2 3 2 -13 15 -39 15 -34 0 4 -9
    -1 -11 -14 -8 -10 3 -27 -1 -36 -8 -9 -8 -14 -9 -10 -3 4 7 0 14 -8 18 -8 3
    -15 1 -15 -4 0 -5 -6 -7 -13 -4 -8 3 -14 -2 -15 -11 -1 -8 -3 -22 -4 -31 -1
    -11 -8 -14 -27 -9 -20 4 -22 3 -11 -5 13 -8 12 -10 -5 -11 -11 0 -28 -2 -38
    -4 -9 -2 -15 1 -11 6 3 5 -2 9 -12 9 -13 0 -14 3 -5 14 10 12 8 14 -11 10 -21
    -5 -21 -4 -4 6 15 10 16 14 5 21 -11 7 -11 9 -1 9 8 0 10 5 5 13 -10 16 -10
    39 1 55 5 7 4 12 -3 12 -8 0 -7 7 1 25 6 13 15 22 19 19 5 -3 9 5 9 16 0 15 5
    20 14 17 11 -4 13 -1 9 10 -4 10 -2 14 4 10 5 -3 10 0 10 8 0 8 -4 15 -9 15
    -11 0 -6 23 7 32 6 4 2 8 -9 8 -13 0 -17 5 -13 20 3 13 0 20 -10 20 -8 0 -11
    -5 -7 -12 4 -7 3 -8 -4 -4 -6 4 -8 14 -5 23 5 12 2 15 -8 11 -9 -3 -29 6 -47
    22 -22 19 -40 26 -55 23 -18 -4 -19 -3 -7 7 12 10 11 11 -7 7 -13 -3 -23 -1
    -23 5 0 5 -4 6 -10 3 -5 -3 -10 -2 -10 3 0 6 -13 9 -29 8 -17 -1 -27 2 -24 8
    4 5 -1 7 -11 3 -13 -5 -17 -3 -13 6 4 12 -21 14 -139 15 -80 0 -144 -4 -144
    -9 0 -5 -5 -9 -11 -9 -5 0 -8 4 -5 8 3 5 -1 9 -8 9 -8 0 -12 -6 -9 -13z m297
    -2 c3 -5 -1 -9 -9 -9 -8 0 -12 4 -9 9 3 4 7 8 9 8 2 0 6 -4 9 -8z m-199 -162
    c-9 -14 8 -12 24 3 11 10 12 9 6 -3 -8 -13 -7 -13 8 -1 10 8 17 9 17 3 0 -11
    45 -10 57 1 3 4 11 7 17 7 6 0 4 -5 -4 -11 -11 -8 -7 -9 18 -6 18 2 36 -1 39
    -6 3 -6 1 -7 -5 -3 -6 3 -13 2 -16 -3 -7 -11 13 -9 33 3 9 6 12 5 7 -2 -3 -6
    -2 -13 4 -17 5 -3 10 -1 10 6 0 7 8 5 22 -7 12 -10 19 -14 15 -9 -3 6 3 11 13
    11 14 0 16 -3 8 -13 -8 -10 -7 -12 6 -7 10 4 16 1 16 -7 0 -11 3 -11 10 1 8
    12 10 10 10 -10 0 -20 2 -22 10 -10 5 8 10 10 10 4 0 -6 12 -16 26 -22 14 -7
    22 -17 19 -22 -3 -6 0 -10 7 -10 9 0 9 -3 -2 -10 -9 -6 -10 -10 -3 -10 8 0 9
    -9 3 -30 -5 -19 -5 -30 1 -30 6 0 5 -8 -1 -20 -7 -14 -7 -20 0 -20 21 0 2 -40
    -21 -43 -8 -2 -20 -6 -27 -11 -7 -4 -12 -4 -11 1 4 22 -3 25 -17 7 -8 -10 -13
    -14 -10 -8 3 7 -4 12 -19 12 -14 0 -25 -6 -25 -12 0 -6 -5 -3 -11 7 -8 13 -15
    15 -28 7 -10 -5 -21 -6 -25 -2 -4 3 -11 0 -16 -8 -8 -12 -10 -11 -10 4 0 20 0
    20 -16 0 -8 -10 -13 -14 -10 -8 3 7 -4 12 -19 12 -14 0 -25 -6 -25 -12 0 -6
    -5 -3 -11 7 -8 13 -15 15 -28 7 -10 -5 -21 -6 -25 -2 -4 3 -11 0 -16 -8 -8
    -12 -10 -11 -10 4 0 20 0 20 -16 0 -8 -10 -13 -14 -10 -8 3 7 -4 12 -19 12
    -14 0 -25 -6 -25 -12 0 -6 -5 -3 -11 7 -8 13 -15 15 -28 7 -10 -5 -21 -6 -25
    -2 -4 3 -11 0 -16 -8 -8 -12 -10 -11 -10 4 0 20 0 20 -16 0 -8 -10 -13 -13 -9
    -6 3 6 2 12 -2 12 -5 0 -15 -6 -22 -12 -9 -8 -11 -8 -8 -2 8 13 -23 29 -32 17
    -3 -4 -15 -9 -26 -10 -11 -1 -14 0 -7 3 10 5 10 9 0 22 -10 12 -10 14 0 8 6
    -4 12 -2 12 3 0 6 -6 11 -12 12 -10 0 -10 2 0 6 10 4 10 8 1 19 -9 11 -9 14 1
    14 10 0 10 3 1 14 -9 11 -9 16 0 21 8 6 7 10 -2 16 -10 6 -11 9 -1 9 6 0 12 5
    12 11 0 5 -6 7 -12 4 -7 -4 -5 0 4 8 10 8 15 16 12 19 -2 3 2 8 11 12 11 4 14
    2 10 -7 -4 -6 1 -3 9 7 9 11 16 24 16 29 0 4 5 5 10 2 6 -3 10 -1 10 5 0 7 6
    8 19 1 16 -9 18 -8 14 12 -4 17 -3 19 6 7 8 -12 11 -12 17 4 5 14 9 15 15 4 6
    -9 9 -10 9 -1 0 7 7 10 17 6 12 -5 14 -3 8 8 -7 11 -5 11 10 -1 17 -14 18 -13
    11 4 -7 20 -6 20 14 1 18 -16 20 -17 14 -2 -4 13 -2 16 9 11 8 -3 18 -1 22 5
    3 6 8 11 11 11 3 0 2 -4 -1 -10z m-578 -234 c0 -8 -6 -12 -15 -9 -11 5 -11 7
    0 14 7 5 13 9 14 9 0 0 1 -6 1 -14z"/>
    <path d="M10 2010 c-8 -5 -12 -12 -9 -15 4 -3 12 1 19 10 14 17 11 19 -10 5z"/>
  </g>
</svg>
